<svg xmlns="http://www.w3.org/2000/svg" viewBox="0 0 200 200" width="200" height="200">
  <!-- Фон - небо -->
  <rect width="200" height="200" fill="#87CEEB"/>
  
  <!-- Облака -->
  <ellipse cx="50" cy="40" rx="15" ry="8" fill="white" opacity="0.8"/>
  <ellipse cx="70" cy="35" rx="12" ry="6" fill="white" opacity="0.8"/>
  <ellipse cx="150" cy="50" rx="18" ry="10" fill="white" opacity="0.8"/>
  <ellipse cx="170" cy="45" rx="14" ry="7" fill="white" opacity="0.8"/>
  
  <!-- Гора -->
  <polygon points="0,200 80,120 160,200" fill="#8B4513"/>
  <polygon points="40,200 120,100 200,200" fill="#A0522D"/>
  
  <!-- Стик-фигурка -->
  <!-- Голова -->
  <circle cx="120" cy="80" r="8" fill="#333"/>
  <!-- Глаза -->
  <circle cx="118" cy="78" r="1.5" fill="white"/>
  <circle cx="122" cy="78" r="1.5" fill="white"/>
  
  <!-- Тело -->
  <line x1="120" y1="88" x2="120" y2="110" stroke="#333" stroke-width="2"/>
  
  <!-- Руки -->
  <line x1="120" y1="95" x2="110" y2="105" stroke="#333" stroke-width="2"/>
  <line x1="120" y1="95" x2="130" y2="105" stroke="#333" stroke-width="2"/>
  
  <!-- Ноги -->
  <line x1="120" y1="110" x2="115" y2="125" stroke="#333" stroke-width="2"/>
  <line x1="120" y1="110" x2="125" y2="125" stroke="#333" stroke-width="2"/>
  
  <!-- Флаг -->
  <line x1="130" y1="105" x2="150" y2="105" stroke="#333" stroke-width="1"/>
  <rect x="150" y="95" width="12" height="8" fill="#FF0000"/>
  <polygon points="162,95 162,103 165,99" fill="#FF0000"/>
</svg> 